<svg width="1386" height="1018" viewBox="0 0 1386 1018" fill="none" xmlns="http://www.w3.org/2000/svg">
<g opacity="0.1">
<path fill-rule="evenodd" clip-rule="evenodd" d="M438 112.64C438 174.803 393.635 225.28 339 225.28C324.878 225.28 311.326 221.872 299.2 215.866V143.316C310.158 147.535 327.017 155.002 339.285 155.002C351.125 154.839 359.114 148.347 359.114 139.583C359.114 136.824 358.543 134.551 357.117 132.604C354.549 128.871 349.414 126.111 340.997 124.001L327.017 120.431C326.019 120.106 324.164 119.619 324.164 119.619L321.773 118.915L319.759 118.194L317.088 117.132C317.088 117.132 315.371 116.385 315.035 116.211C307.189 112.153 301.911 106.31 299.343 98.844C299.2 98.5194 299.2 98.3571 299.058 98.0325C297.916 94.4618 297.488 90.7288 297.488 86.5088C297.488 63.9484 314.607 49.1786 338.572 49.1786C341.71 49.1786 344.706 49.3409 347.559 49.8278C361.254 51.9378 371.097 59.2415 376.089 69.7914C377.801 73.3621 378.942 77.4197 379.37 81.6396C379.37 82.2889 379.513 83.1004 379.513 83.7496C379.513 84.3988 379.656 85.2104 379.656 85.8596H358.543C358.543 85.0481 358.401 84.2365 358.258 83.425C358.115 82.7758 357.973 82.2889 357.83 81.6396C356.261 76.4459 352.552 72.8752 347.559 70.9275C345.277 70.116 342.566 69.4667 339.713 69.4667C339.285 69.4667 339 69.4667 338.572 69.4667C327.445 69.4667 320.027 75.472 320.027 84.5611C320.027 86.8334 320.455 88.7811 321.454 90.5665C321.739 91.0534 322.024 91.5403 322.452 92.0272C325.163 95.2733 330.013 97.7079 337.573 99.6556L350.555 102.739C365.39 106.31 374.378 112.478 378.657 121.891C380.512 126.274 381.51 131.305 381.51 136.986C381.51 154.677 372.095 167.662 356.118 172.855C352.124 174.154 347.702 174.965 342.994 175.452H342.852C342.424 175.452 342.138 175.452 341.71 175.452H333.579C329.3 175.128 325.163 174.478 321.454 173.342V198.013C327.017 199.473 332.866 200.285 339 200.285C381.51 200.285 416.032 161.007 416.032 112.64C416.032 64.273 381.51 24.995 339 24.995C296.49 24.995 261.968 64.273 261.968 112.64C261.968 139.907 272.952 164.415 290.213 180.484V210.673C260.256 191.196 240 154.515 240 112.64C240 50.3147 284.365 0 339 0C393.635 0 438 50.3147 438 112.64Z" stroke="black" fill="#0066FF"/>
<path fill-rule="evenodd" clip-rule="evenodd" d="M1385 726.64C1385 788.803 1340.64 839.28 1286 839.28C1271.88 839.28 1258.33 835.872 1246.2 829.866V757.316C1257.16 761.535 1274.02 769.002 1286.29 769.002C1298.13 768.839 1306.11 762.347 1306.11 753.583C1306.11 750.824 1305.54 748.551 1304.12 746.604C1301.55 742.871 1296.41 740.111 1288 738.001L1274.02 734.431C1273.02 734.106 1271.16 733.619 1271.16 733.619L1268.77 732.915L1266.76 732.194L1264.09 731.132C1264.09 731.132 1262.37 730.385 1262.03 730.211C1254.19 726.153 1248.91 720.31 1246.34 712.844C1246.2 712.519 1246.2 712.357 1246.06 712.033C1244.92 708.462 1244.49 704.729 1244.49 700.509C1244.49 677.948 1261.61 663.179 1285.57 663.179C1288.71 663.179 1291.71 663.341 1294.56 663.828C1308.25 665.938 1318.1 673.242 1323.09 683.791C1324.8 687.362 1325.94 691.42 1326.37 695.64C1326.37 696.289 1326.51 697.1 1326.51 697.75C1326.51 698.399 1326.66 699.21 1326.66 699.86H1305.54C1305.54 699.048 1305.4 698.237 1305.26 697.425C1305.12 696.776 1304.97 696.289 1304.83 695.64C1303.26 690.446 1299.55 686.875 1294.56 684.927C1292.28 684.116 1289.57 683.467 1286.71 683.467C1286.29 683.467 1286 683.467 1285.57 683.467C1274.45 683.467 1267.03 689.472 1267.03 698.561C1267.03 700.833 1267.46 702.781 1268.45 704.566C1268.74 705.053 1269.02 705.54 1269.45 706.027C1272.16 709.273 1277.01 711.708 1284.57 713.656L1297.55 716.739C1312.39 720.31 1321.38 726.478 1325.66 735.891C1327.51 740.274 1328.51 745.305 1328.51 750.986C1328.51 768.677 1319.1 781.662 1303.12 786.855C1299.12 788.154 1294.7 788.965 1289.99 789.452H1289.85C1289.42 789.452 1289.14 789.452 1288.71 789.452H1280.58C1276.3 789.128 1272.16 788.478 1268.45 787.342V812.013C1274.02 813.473 1279.87 814.285 1286 814.285C1328.51 814.285 1363.03 775.007 1363.03 726.64C1363.03 678.273 1328.51 638.995 1286 638.995C1243.49 638.995 1208.97 678.273 1208.97 726.64C1208.97 753.907 1219.95 778.415 1237.21 794.484V824.673C1207.26 805.196 1187 768.515 1187 726.64C1187 664.315 1231.36 614 1286 614C1340.64 614 1385 664.315 1385 726.64Z" stroke="black" fill="#0066FF"/>
<path fill-rule="evenodd" clip-rule="evenodd" d="M278 904.64C278 966.803 233.635 1017.28 179 1017.28C164.878 1017.28 151.326 1013.87 139.2 1007.87V935.316C150.158 939.535 167.017 947.002 179.285 947.002C191.125 946.839 199.114 940.347 199.114 931.583C199.114 928.824 198.543 926.551 197.117 924.604C194.549 920.871 189.414 918.111 180.997 916.001L167.017 912.431C166.019 912.106 164.164 911.619 164.164 911.619L161.773 910.915L159.759 910.194L157.088 909.132C157.088 909.132 155.371 908.385 155.035 908.211C147.189 904.153 141.911 898.31 139.343 890.844C139.2 890.519 139.2 890.357 139.058 890.033C137.916 886.462 137.488 882.729 137.488 878.509C137.488 855.948 154.607 841.179 178.572 841.179C181.71 841.179 184.706 841.341 187.559 841.828C201.254 843.938 211.097 851.242 216.089 861.791C217.801 865.362 218.942 869.42 219.37 873.64C219.37 874.289 219.513 875.1 219.513 875.75C219.513 876.399 219.656 877.21 219.656 877.86H198.543C198.543 877.048 198.401 876.237 198.258 875.425C198.115 874.776 197.973 874.289 197.83 873.64C196.261 868.446 192.552 864.875 187.559 862.927C185.277 862.116 182.566 861.467 179.713 861.467C179.285 861.467 179 861.467 178.572 861.467C167.445 861.467 160.027 867.472 160.027 876.561C160.027 878.833 160.455 880.781 161.454 882.566C161.739 883.053 162.024 883.54 162.452 884.027C165.163 887.273 170.013 889.708 177.573 891.656L190.555 894.739C205.39 898.31 214.378 904.478 218.657 913.891C220.512 918.274 221.51 923.305 221.51 928.986C221.51 946.677 212.095 959.662 196.118 964.855C192.124 966.154 187.702 966.965 182.994 967.452H182.852C182.424 967.452 182.138 967.452 181.71 967.452H173.579C169.3 967.128 165.163 966.478 161.454 965.342V990.013C167.017 991.473 172.866 992.285 179 992.285C221.51 992.285 256.032 953.007 256.032 904.64C256.032 856.273 221.51 816.995 179 816.995C136.49 816.995 101.968 856.273 101.968 904.64C101.968 931.907 112.952 956.415 130.213 972.484V1002.67C100.256 983.196 80 946.515 80 904.64C80 842.315 124.365 792 179 792C233.635 792 278 842.315 278 904.64Z" stroke="black" fill="#0066FF"/>
<path fill-rule="evenodd" clip-rule="evenodd" d="M199 425.529C199 487.692 154.635 538.169 100 538.169C85.8775 538.169 72.3256 534.761 60.2003 528.755V456.205C71.1584 460.424 88.0173 467.891 100.285 467.891C112.125 467.728 120.114 461.236 120.114 452.472C120.114 449.712 119.543 447.44 118.117 445.493C115.549 441.759 110.414 439 101.997 436.89L88.0173 433.32C87.0187 432.995 85.1643 432.508 85.1643 432.508L82.7733 431.804L80.7594 431.083L78.0877 430.021C78.0877 430.021 76.3708 429.274 76.0346 429.1C68.1888 425.042 62.9107 419.199 60.3429 411.733C60.2003 411.408 60.2003 411.246 60.0576 410.921C58.9164 407.351 58.4885 403.618 58.4885 399.398C58.4885 376.837 75.6066 362.067 99.572 362.067C102.71 362.067 105.706 362.23 108.559 362.717C122.254 364.827 132.097 372.13 137.089 382.68C138.801 386.251 139.942 390.309 140.37 394.529C140.37 395.178 140.513 395.989 140.513 396.639C140.513 397.288 140.656 398.099 140.656 398.749H119.543C119.543 397.937 119.401 397.125 119.258 396.314C119.115 395.665 118.973 395.178 118.83 394.529C117.261 389.335 113.552 385.764 108.559 383.816C106.277 383.005 103.566 382.356 100.713 382.356C100.285 382.356 100 382.356 99.572 382.356C88.4452 382.356 81.0274 388.361 81.0274 397.45C81.0274 399.722 81.4553 401.67 82.4539 403.455C82.7392 403.942 83.0245 404.429 83.4524 404.916C86.1628 408.162 91.013 410.597 98.5735 412.544L111.555 415.628C126.39 419.199 135.378 425.367 139.657 434.78C141.512 439.163 142.51 444.194 142.51 449.875C142.51 467.566 133.095 480.551 117.118 485.744C113.124 487.043 108.702 487.854 103.994 488.341H103.852C103.424 488.341 103.138 488.341 102.71 488.341H94.5792C90.2997 488.017 86.1628 487.367 82.4539 486.231V510.902C88.0173 512.362 93.866 513.174 100 513.174C142.51 513.174 177.032 473.896 177.032 425.529C177.032 377.162 142.51 337.884 100 337.884C57.4899 337.884 22.9683 377.162 22.9683 425.529C22.9683 452.796 33.9524 477.304 51.2133 493.373V523.561C21.2565 504.085 1 467.404 1 425.529C1 363.204 45.3646 312.889 100 312.889C154.635 312.889 199 363.204 199 425.529Z" stroke="black" fill="#0066FF"/>
<path fill-rule="evenodd" clip-rule="evenodd" d="M1212 211.627C1212 273.79 1167.64 324.267 1113 324.267C1098.88 324.267 1085.33 320.858 1073.2 314.853V242.302C1084.16 246.521 1101.02 253.988 1113.29 253.988C1125.13 253.826 1133.11 247.334 1133.11 238.569C1133.11 235.81 1132.54 233.538 1131.12 231.59C1128.55 227.857 1123.41 225.098 1115 222.988L1101.02 219.417C1100.02 219.093 1098.16 218.606 1098.16 218.606L1095.77 217.901L1093.76 217.181L1091.09 216.118C1091.09 216.118 1089.37 215.371 1089.03 215.197C1081.19 211.14 1075.91 205.297 1073.34 197.831C1073.2 197.506 1073.2 197.344 1073.06 197.019C1071.92 193.448 1071.49 189.715 1071.49 185.495C1071.49 162.935 1088.61 148.165 1112.57 148.165C1115.71 148.165 1118.71 148.327 1121.56 148.814C1135.25 150.924 1145.1 158.228 1150.09 168.778C1151.8 172.349 1152.94 176.406 1153.37 180.626C1153.37 181.275 1153.51 182.087 1153.51 182.736C1153.51 183.385 1153.66 184.197 1153.66 184.846H1132.54C1132.54 184.035 1132.4 183.223 1132.26 182.412C1132.12 181.762 1131.97 181.275 1131.83 180.626C1130.26 175.432 1126.55 171.862 1121.56 169.914C1119.28 169.103 1116.57 168.453 1113.71 168.453C1113.29 168.453 1113 168.453 1112.57 168.453C1101.45 168.453 1094.03 174.459 1094.03 183.548C1094.03 185.82 1094.46 187.768 1095.45 189.553C1095.74 190.04 1096.02 190.527 1096.45 191.014C1099.16 194.26 1104.01 196.694 1111.57 198.642L1124.55 201.726C1139.39 205.297 1148.38 211.464 1152.66 220.878C1154.51 225.26 1155.51 230.292 1155.51 235.972C1155.51 253.664 1146.1 266.648 1130.12 271.842C1126.12 273.14 1121.7 273.952 1116.99 274.439H1116.85C1116.42 274.439 1116.14 274.439 1115.71 274.439H1107.58C1103.3 274.114 1099.16 273.465 1095.45 272.329V296.999C1101.02 298.46 1106.87 299.272 1113 299.272C1155.51 299.272 1190.03 259.994 1190.03 211.627C1190.03 163.26 1155.51 123.982 1113 123.982C1070.49 123.982 1035.97 163.26 1035.97 211.627C1035.97 238.894 1046.95 263.402 1064.21 279.47V309.659C1034.26 290.182 1014 253.501 1014 211.627C1014 149.301 1058.36 98.9866 1113 98.9866C1167.64 98.9866 1212 149.301 1212 211.627Z" stroke="black" fill="#0066FF"/>
</g>
</svg>
